<svg width="104" height="20" viewBox="0 0 104 20" fill="none" xmlns="http://www.w3.org/2000/svg">
<path d="M0.772575 16.5869L4.05048 13.9984C4.97184 15.605 6.44247 16.5333 8.12572 16.5333C9.95072 16.5333 10.9252 15.3373 10.9252 14.0341C10.9252 12.481 9.04708 11.9811 7.0449 11.3563C4.52888 10.5708 1.71165 9.58894 1.71165 5.96501C1.71165 2.93018 4.33398 0.520172 7.96625 0.520172C11.0315 0.520172 12.7857 1.68055 14.3094 3.26937L11.3505 5.51871C10.5709 4.35833 9.47232 3.73352 8.00169 3.73352C6.33616 3.73352 5.43252 4.64396 5.43252 5.84004C5.43252 7.28605 7.2398 7.7859 9.24198 8.46427C11.7934 9.30331 14.6815 10.428 14.6815 14.0698C14.6815 17.0867 12.3073 19.9788 8.16116 19.9788C4.7415 19.9966 2.47354 18.5328 0.772575 16.5869ZM29.5827 6.75049H33.091V8.1965C33.9237 7.12538 35.1817 6.48271 36.6524 6.48271C39.6822 6.48271 41.5249 8.44642 41.5249 11.8026V19.711H37.9458V12.2846C37.9458 10.5529 37.1485 9.53539 35.5716 9.53539C34.225 9.53539 33.1264 10.4637 33.1264 12.6416V19.7288H29.6004V6.75049H29.5827ZM42.3223 13.2486C42.3223 8.66065 45.6711 6.50056 48.5769 6.50056C50.2424 6.50056 51.5713 7.12538 52.4218 8.03583V0.787951H55.9477V19.7288H52.4218V18.2828C51.5713 19.3004 50.207 19.9966 48.5414 19.9966C45.8128 19.9966 42.3223 17.8008 42.3223 13.2486ZM52.5281 13.2129C52.5281 11.2849 51.146 9.73176 49.2325 9.73176C47.2834 9.73176 45.7774 11.2135 45.7774 13.2129C45.7774 15.2123 47.2657 16.7119 49.2325 16.7119C51.1283 16.7119 52.5281 15.1409 52.5281 13.2129ZM56.7805 10.2673C56.7805 4.87604 60.8203 0.538024 66.3839 0.538024C69.1657 0.538024 71.5045 1.55558 73.2055 3.16226C73.8965 3.82278 74.4812 4.57256 74.9419 5.39374L71.8057 7.32175C70.654 5.16167 68.8645 4.05485 66.4193 4.05485C62.9997 4.05485 60.3419 6.87545 60.3419 10.2852C60.3419 13.7663 62.9465 16.5155 66.5434 16.5155C69.272 16.5155 71.2033 14.9624 71.8766 12.5524H65.9764V9.07124H75.7392V10.5172C75.7392 15.605 72.1424 19.9788 66.5434 19.9788C60.6608 19.9966 56.7805 15.4979 56.7805 10.2673ZM76.6251 6.75049H80.1334V8.87487C80.7712 7.51812 81.9407 6.75049 83.6948 6.75049H85.1123L83.8188 10.2138H82.862C80.9839 10.2138 80.1511 11.1956 80.1511 13.6056V19.7288H76.6251V6.75049ZM86.0159 6.75049H89.5419V19.7288H86.0159V10.2138H84.7402L86.0159 6.75049ZM87.7877 4.78678C88.9572 4.78678 89.8962 3.84063 89.8962 2.6624C89.8962 1.48418 88.9572 0.538024 87.7877 0.538024C86.6183 0.538024 85.6792 1.48418 85.6792 2.6624C85.6792 3.82278 86.6183 4.78678 87.7877 4.78678ZM90.3746 13.2486C90.3746 8.66065 93.7234 6.50056 96.6292 6.50056C98.2948 6.50056 99.6236 7.12538 100.474 8.03583V0.787951H104V19.7288H100.474V18.2828C99.6236 19.3004 98.2593 19.9966 96.5938 19.9966C93.8475 19.9966 90.3746 17.8008 90.3746 13.2486ZM100.58 13.2129C100.58 11.2849 99.1984 9.73176 97.2848 9.73176C95.3358 9.73176 93.8297 11.2135 93.8297 13.2129C93.8297 15.2123 95.3181 16.7119 97.2848 16.7119C99.1807 16.7119 100.58 15.1409 100.58 13.2129ZM28.75 13.2129C28.75 9.48183 26.039 6.50056 22.1056 6.50056C18.4024 6.50056 15.408 9.51754 15.408 13.2486C15.408 16.9796 18.1898 19.9966 22.2119 19.9966C24.9937 19.9966 26.9958 18.6399 28.1121 16.7119L25.3126 15.0338C24.7279 16.1763 23.5762 16.8904 22.2296 16.8904C20.3692 16.8904 19.2174 15.9621 18.8099 14.5339H28.75V13.2129ZM18.9694 11.6598C19.5187 10.4458 20.6349 9.6068 22.141 9.6068C23.6293 9.6068 24.7456 10.303 25.2063 11.6598H18.9694Z" fill="#898FEB"/>
</svg>
